# xmcd
#
# Track frame offsets: 
#        150
#        19687
#        41087
#        61502
#        82540
#        102510
#        121132
#        138832
#        158320
#        174575
#        189592
#        215085
#
# Disc length: 3214 seconds
#
# Revision: 0
# Processed by: cddbd v1.5.1PL2 Copyright (c) Steve Scherf et al.
# Submitted via: ExactAudioCopy v0.95b3
#
DISCID=8d0c8c0c
DTITLE=Anthony Watson - I Love Being Single 
DYEAR=2004
DGENRE=Soul
TTITLE0=I Don't Wanna Live Without Your Love
TTITLE1=Still in Love With You
TTITLE2=Can't Get Over You
TTITLE3=Picture This
TTITLE4=Other Piece of My Heart
TTITLE5=Missing You
TTITLE6=Lick You Like Lollipop
TTITLE7=I'm Gonna Take My Time
TTITLE8=I Love Being Single
TTITLE9=Boomerang 
TTITLE10=Lick You Like Lollipop [Club Extended Mix]
TTITLE11=I Love Being Single [Club Extended Mix]
EXTD=
EXTT0=
EXTT1=
EXTT2=
EXTT3=
EXTT4=
EXTT5=
EXTT6=
EXTT7=
EXTT8=
EXTT9=
EXTT10=
EXTT11=
PLAYORDER=
